<?xml version="1.0" encoding="UTF-8" standalone="no"?>
<svg
   version="1.1"
   width="28"
   height="28"
   viewBox="0 0 28 28"
   id="svg2"
   sodipodi:docname="alcohol.svg"
   inkscape:version="1.3 (0e150ed6c4, 2023-07-21)"
   xmlns:inkscape="http://www.inkscape.org/namespaces/inkscape"
   xmlns:sodipodi="http://sodipodi.sourceforge.net/DTD/sodipodi-0.dtd"
   xmlns="http://www.w3.org/2000/svg"
   xmlns:svg="http://www.w3.org/2000/svg"
   xmlns:rdf="http://www.w3.org/1999/02/22-rdf-syntax-ns#"
   xmlns:cc="http://creativecommons.org/ns#"
   xmlns:dc="http://purl.org/dc/elements/1.1/">
  <sodipodi:namedview
     id="namedview1"
     pagecolor="#ffffff"
     bordercolor="#000000"
     borderopacity="0.25"
     inkscape:showpageshadow="2"
     inkscape:pageopacity="0.0"
     inkscape:pagecheckerboard="0"
     inkscape:deskcolor="#d1d1d1"
     inkscape:zoom="21.428571"
     inkscape:cx="14"
     inkscape:cy="13.976667"
     inkscape:window-width="1920"
     inkscape:window-height="1000"
     inkscape:window-x="-11"
     inkscape:window-y="-11"
     inkscape:window-maximized="1"
     inkscape:current-layer="svg2" />
  <metadata
     id="metadata8">
    <rdf:RDF>
      <cc:Work
         rdf:about="">
        <dc:format>image/svg+xml</dc:format>
        <dc:type
           rdf:resource="http://purl.org/dc/dcmitype/StillImage" />
        <dc:title />
      </cc:Work>
    </rdf:RDF>
  </metadata>
  <defs
     id="defs6" />
  <rect
     width="28"
     height="28"
     x="0"
     y="0"
     id="canvas"
     style="fill:none;stroke:none;visibility:hidden" />
  <path
     d="M 6,0 C 4,0 4,0.9341136 4,2 V 6 C 4,8 0,8 0,12 v 14 c 0,1.132504 0.934114,2 2,2 h 8 c 1.199122,0 2,-0.800878 2,-2 V 12 C 12,8 8,8 8,6 V 2 C 8,0.8674958 8,0 6,0 Z m 8,10 c 0,6 0.94212,10 6,10 v 4 c 0,1.333822 -2,2 -3,2 -2,0 -3,0 -3,2 h 14 c 0,-2 -1,-2 -3,-2 -1,0 -3,-0.732796 -3,-2 v -4 c 4.94212,0 6,-4 6,-10 z"
     id="alcohol"
     style="fill:#ac39ac;fill-opacity:1;stroke:none;stroke-width:2" />
</svg>
